<svg version="1.1" id="Layer_1" xmlns="http://www.w3.org/2000/svg" xmlns:xlink="http://www.w3.org/1999/xlink" x="0px" y="0px"
	 width="100%" viewBox="0 0 1080 1080" enable-background="new 0 0 1080 1080" xml:space="preserve">
<path fill="#DC832E" opacity="1.000000" stroke="none" 
	d="
M457.000000,1.000000 
	C664.934998,1.000000 872.869934,1.000000 1081.000000,1.000000 
	C1081.000000,239.693481 1081.000000,478.387024 1080.628052,717.482849 
	C1065.571411,713.053345 1050.886841,708.221619 1035.913940,703.223389 
	C1019.095703,696.132080 1002.434753,689.500671 986.073914,682.196899 
	C970.933655,675.437866 956.114624,667.959290 941.083374,660.346558 
	C941.008423,606.917786 941.012695,553.940002 940.996826,500.962189 
	C940.986877,467.632050 914.438477,441.011261 881.182922,441.004608 
	C808.713318,440.990082 736.243713,441.000916 663.774109,440.993805 
	C661.944885,440.993622 660.115662,440.904327 658.140137,440.545593 
	C646.833313,427.039978 635.397644,414.066254 624.582825,400.594208 
	C611.380371,384.147919 598.699158,367.283142 586.093628,350.393555 
	C587.833923,349.774933 589.275635,349.370636 590.711914,348.948029 
	C692.523987,318.990234 794.344910,289.062744 896.141968,259.054169 
	C930.727966,248.858658 949.052612,214.241653 937.687744,181.376236 
	C927.984070,153.314651 896.714600,133.442444 861.120422,144.122833 
	C788.625061,165.875763 715.934143,186.977127 643.315002,208.317307 
	C604.214355,219.807587 565.095764,231.236526 525.765259,242.365082 
	C524.342102,238.761108 523.137329,235.485764 521.935852,232.209198 
	C514.277649,211.324783 506.487518,190.487350 499.025024,169.533203 
	C495.852112,160.623962 493.240997,151.506546 490.595154,142.419495 
	C485.997314,126.628418 481.213745,110.878212 477.164062,94.944145 
	C472.257507,75.638527 467.829742,56.203903 463.586975,36.739613 
	C461.008392,24.909885 459.170563,12.918674 457.000000,1.000000 
z"/>
<path fill="#2D59D6" opacity="1.000000" stroke="none" 
	d="
M1081.000000,1038.000000 
	C1081.000000,1052.330322 1081.000000,1066.660645 1081.000000,1080.993164 
	C721.079041,1080.995483 361.158051,1080.995483 1.000000,1080.995483 
	C1.000000,793.973206 1.000000,506.946289 1.243351,219.688934 
	C16.330444,243.451187 34.426891,264.998138 52.223942,286.759918 
	C67.599266,305.560455 83.211609,324.166992 98.630310,342.932312 
	C112.778152,360.150909 126.807312,377.467010 140.949768,395.227234 
	C141.007156,557.188477 141.177795,718.662964 140.856857,880.136475 
	C140.790482,913.532654 168.411407,941.187195 201.912537,941.142395 
	C412.211731,940.861023 622.511475,940.999756 832.811035,941.006470 
	C834.807068,941.006531 836.803040,941.101074 839.014099,941.433716 
	C853.891357,948.378418 868.372192,955.481934 883.256653,961.604004 
	C907.976685,971.771545 932.955994,981.308594 958.084900,991.361572 
	C973.160095,997.404541 987.984863,1003.175903 1002.790710,1008.995422 
	C1019.299377,1015.484375 1035.721436,1022.201477 1052.316772,1028.459351 
	C1061.737427,1032.011841 1071.429932,1034.843628 1081.000000,1038.000000 
z"/>
<path fill="#333638" opacity="1.000000" stroke="none" 
	d="
M140.888763,394.740112 
	C126.807312,377.467010 112.778152,360.150909 98.630310,342.932312 
	C83.211609,324.166992 67.599266,305.560455 52.223942,286.759918 
	C34.426891,264.998138 16.330444,243.451187 1.243351,219.229218 
	C1.000000,146.380508 1.000000,73.761017 1.000000,1.000000 
	C152.687531,1.000000 304.375122,1.000000 456.531342,1.000000 
	C459.170563,12.918674 461.008392,24.909885 463.586975,36.739613 
	C467.829742,56.203903 472.257507,75.638527 477.164062,94.944145 
	C481.213745,110.878212 485.997314,126.628418 490.595154,142.419495 
	C493.240997,151.506546 495.852112,160.623962 499.025024,169.533203 
	C506.487518,190.487350 514.277649,211.324783 521.935852,232.209198 
	C523.137329,235.485764 524.342102,238.761108 525.483887,242.496490 
	C504.561676,249.122986 483.707977,255.314041 462.838928,261.452911 
	C370.605591,288.584412 278.381714,315.748169 186.114532,342.764130 
	C174.305786,346.221741 164.247177,352.079346 156.004395,361.209229 
	C147.355194,370.789215 143.066147,382.273895 140.888763,394.740112 
z"/>
<path fill="#35383B" opacity="1.000000" stroke="none" 
	d="
M1081.000000,1037.531372 
	C1071.429932,1034.843628 1061.737427,1032.011841 1052.316772,1028.459351 
	C1035.721436,1022.201477 1019.299377,1015.484375 1002.790710,1008.995422 
	C987.984863,1003.175903 973.160095,997.404541 958.440735,991.283508 
	C967.366211,982.956421 976.980835,975.648193 984.791626,966.755615 
	C991.948425,958.607666 996.912231,948.573242 1003.280090,939.683655 
	C1014.245667,924.375610 1019.653931,906.655701 1024.941406,889.060974 
	C1028.979370,875.624023 1031.468140,861.650146 1033.708984,847.763916 
	C1036.055542,833.221497 1038.165771,818.535828 1038.785767,803.845520 
	C1039.639404,783.619507 1039.004883,763.330383 1038.981079,743.068298 
	C1038.978882,741.244080 1038.799072,739.418762 1038.668335,737.596313 
	C1037.851440,726.193848 1037.025269,714.791931 1036.202148,703.389893 
	C1050.886841,708.221619 1065.571411,713.053345 1080.628052,717.942566 
	C1081.000000,824.354248 1081.000000,930.708496 1081.000000,1037.531372 
z"/>
<path fill="#FFFFFF" opacity="1.000000" stroke="none" 
	d="
M140.949783,395.227234 
	C143.066147,382.273895 147.355194,370.789215 156.004395,361.209229 
	C164.247177,352.079346 174.305786,346.221741 186.114532,342.764130 
	C278.381714,315.748169 370.605591,288.584412 462.838928,261.452911 
	C483.707977,255.314041 504.561676,249.122986 525.703857,242.824554 
	C565.095764,231.236526 604.214355,219.807587 643.315002,208.317307 
	C715.934143,186.977127 788.625061,165.875763 861.120422,144.122833 
	C896.714600,133.442444 927.984070,153.314651 937.687744,181.376236 
	C949.052612,214.241653 930.727966,248.858658 896.141968,259.054169 
	C794.344910,289.062744 692.523987,318.990234 590.711914,348.948029 
	C589.275635,349.370636 587.833923,349.774933 585.701294,350.454987 
	C584.195862,350.902496 583.369995,351.035736 582.573792,351.269867 
	C488.598297,378.899811 394.623779,406.532959 300.653046,434.179077 
	C287.454865,438.061981 274.275879,442.010162 261.172852,445.902893 
	C261.172852,475.743439 261.172852,505.204071 261.101013,535.157959 
	C261.029144,630.681213 261.029144,725.711182 261.029144,820.999634 
	C263.160065,820.999634 264.640320,820.999634 266.120575,820.999634 
	C382.380737,820.999695 498.640900,821.000366 614.901062,820.993225 
	C616.229553,820.993164 617.558105,820.891846 619.358765,820.900818 
	C686.838684,820.963806 753.846558,820.963806 820.999634,820.963806 
	C820.999634,819.301453 820.999573,818.311157 820.999573,817.320862 
	C820.999634,743.068787 821.000427,668.816772 820.992798,594.564697 
	C820.992676,593.402832 820.888733,592.241028 820.901245,590.609497 
	C820.969360,580.557617 820.969360,570.975464 820.969360,561.174133 
	C807.165405,561.174133 793.908569,561.174133 780.209473,561.106628 
	C747.507080,561.073608 715.246887,561.108154 682.522827,561.078369 
	C635.269531,561.008911 588.479492,561.145874 541.690796,560.957153 
	C498.633118,560.783447 469.883392,519.071228 485.109955,479.212708 
	C493.928894,456.127319 516.148560,441.098663 541.904297,441.019592 
	C580.698120,440.900513 619.492371,440.904755 658.286438,440.856598 
	C660.115662,440.904327 661.944885,440.993622 663.774109,440.993805 
	C736.243713,441.000916 808.713318,440.990082 881.182922,441.004608 
	C914.438477,441.011261 940.986877,467.632050 940.996826,500.962189 
	C941.012695,553.940002 941.008423,606.917786 941.013916,660.831055 
	C941.009949,734.882385 941.015320,807.998230 940.994995,881.114136 
	C940.985779,914.336121 914.406677,940.948059 881.261047,941.004211 
	C867.106995,941.028198 852.953064,941.100952 838.799072,941.151611 
	C836.803040,941.101074 834.807068,941.006531 832.811035,941.006470 
	C622.511475,940.999756 412.211731,940.861023 201.912537,941.142395 
	C168.411407,941.187195 140.790482,913.532654 140.856857,880.136475 
	C141.177795,718.662964 141.007156,557.188477 140.949783,395.227234 
z"/>
<path fill="#282828" opacity="1.000000" stroke="none" 
	d="
M658.140137,440.545593 
	C619.492371,440.904755 580.698120,440.900513 541.904297,441.019592 
	C516.148560,441.098663 493.928894,456.127319 485.109955,479.212708 
	C469.883392,519.071228 498.633118,560.783447 541.690796,560.957153 
	C588.479492,561.145874 635.269531,561.008911 682.417236,561.422485 
	C680.635376,562.559265 678.546448,563.560364 676.347107,563.973511 
	C654.033997,568.165161 631.600098,571.780029 609.405518,576.518494 
	C587.188538,581.261719 565.218262,587.153992 543.115295,592.440125 
	C529.259705,595.753845 515.475891,599.611267 501.440796,601.853210 
	C490.375061,603.620728 478.791962,604.870972 467.758820,603.591064 
	C438.971863,600.251465 415.855682,586.036255 398.539307,562.778931 
	C385.602203,545.403442 379.648132,525.401672 379.370911,504.039001 
	C379.212280,491.815399 381.486176,479.623932 386.103424,468.022064 
	C398.272003,437.445770 420.127594,417.051819 451.418945,407.606171 
	C468.050476,402.585785 485.350861,399.793976 502.319580,395.867706 
	C506.084900,394.996490 509.724884,393.583740 513.422546,392.420319 
	C512.535767,391.454865 511.788422,391.324097 511.102661,391.474426 
	C500.100922,393.885803 489.040985,396.070984 478.124542,398.824219 
	C451.571045,405.521240 424.817474,411.611267 398.655090,419.614868 
	C377.109253,426.206207 356.215302,434.987854 335.218231,443.269867 
	C330.241119,445.233002 325.389130,448.444855 321.544250,452.178619 
	C308.096466,465.237854 302.374847,482.274719 299.131226,500.118073 
	C297.092194,511.334778 296.075012,522.768433 295.188629,534.150635 
	C294.728333,540.061646 295.486877,546.075562 295.806610,552.037109 
	C296.110870,557.709412 296.560608,563.373901 296.643555,568.900879 
	C284.618134,557.394775 272.895477,546.029785 261.172852,534.664734 
	C261.172852,505.204071 261.172852,475.743439 261.172852,445.902893 
	C274.275879,442.010162 287.454865,438.061981 300.653046,434.179077 
	C394.623779,406.532959 488.598297,378.899811 582.573792,351.269867 
	C583.369995,351.035736 584.195862,350.902496 585.400208,350.660767 
	C598.699158,367.283142 611.380371,384.147919 624.582825,400.594208 
	C635.397644,414.066254 646.833313,427.039978 658.140137,440.545593 
M526.241089,388.139160 
	C523.021790,388.914825 519.802551,389.690521 516.583252,390.466187 
	C516.700623,390.940765 516.818054,391.415344 516.935486,391.889923 
	C520.969055,391.043396 525.002625,390.196899 529.036194,389.350372 
	C528.972656,388.973785 528.909058,388.597229 528.845459,388.220642 
	C528.213379,388.165314 527.581299,388.109955 526.241089,388.139160 
z"/>
<path fill="#282828" opacity="1.000000" stroke="none" 
	d="
M839.014099,941.433777 
	C852.953064,941.100952 867.106995,941.028198 881.261047,941.004211 
	C914.406677,940.948059 940.985779,914.336121 940.994995,881.114136 
	C941.015320,807.998230 941.009949,734.882385 941.084595,661.282043 
	C956.114624,667.959290 970.933655,675.437866 986.073914,682.196899 
	C1002.434753,689.500671 1019.095703,696.132080 1035.913818,703.223389 
	C1037.025269,714.791931 1037.851440,726.193848 1038.668335,737.596313 
	C1038.799072,739.418762 1038.978882,741.244080 1038.981079,743.068298 
	C1039.004883,763.330383 1039.639404,783.619507 1038.785767,803.845520 
	C1038.165771,818.535828 1036.055542,833.221497 1033.708984,847.763916 
	C1031.468140,861.650146 1028.979370,875.624023 1024.941406,889.060974 
	C1019.653931,906.655701 1014.245667,924.375610 1003.280090,939.683655 
	C996.912231,948.573242 991.948425,958.607666 984.791626,966.755615 
	C976.980835,975.648193 967.366211,982.956421 958.181946,991.033203 
	C932.955994,981.308594 907.976685,971.771545 883.256653,961.604004 
	C868.372192,955.481934 853.891357,948.378418 839.014099,941.433777 
z"/>
<path fill="#35383B" opacity="1.000000" stroke="none" 
	d="
M296.946350,569.041870 
	C296.560608,563.373901 296.110870,557.709412 295.806610,552.037109 
	C295.486877,546.075562 294.728333,540.061646 295.188629,534.150635 
	C296.075012,522.768433 297.092194,511.334778 299.131226,500.118073 
	C302.374847,482.274719 308.096466,465.237854 321.544250,452.178619 
	C325.389130,448.444855 330.241119,445.233002 335.218231,443.269867 
	C356.215302,434.987854 377.109253,426.206207 398.655090,419.614868 
	C424.817474,411.611267 451.571045,405.521240 478.124542,398.824219 
	C489.040985,396.070984 500.100922,393.885803 511.102661,391.474426 
	C511.788422,391.324097 512.535767,391.454865 513.422546,392.420319 
	C509.724884,393.583740 506.084900,394.996490 502.319580,395.867706 
	C485.350861,399.793976 468.050476,402.585785 451.418945,407.606171 
	C420.127594,417.051819 398.272003,437.445770 386.103424,468.022064 
	C381.486176,479.623932 379.212280,491.815399 379.370911,504.039001 
	C379.648132,525.401672 385.602203,545.403442 398.539307,562.778931 
	C415.855682,586.036255 438.971863,600.251465 467.758820,603.591064 
	C478.791962,604.870972 490.375061,603.620728 501.440796,601.853210 
	C515.475891,599.611267 529.259705,595.753845 543.115295,592.440125 
	C565.218262,587.153992 587.188538,581.261719 609.405518,576.518494 
	C631.600098,571.780029 654.033997,568.165161 676.347107,563.973511 
	C678.546448,563.560364 680.635376,562.559265 682.881104,561.486816 
	C715.246887,561.108154 747.507080,561.073608 780.405396,561.395447 
	C786.255981,565.790527 791.383301,569.945374 796.700806,573.840820 
	C804.674927,579.682556 812.782410,585.342102 820.833191,591.079163 
	C820.888733,592.241028 820.992676,593.402832 820.992798,594.564697 
	C821.000427,668.816772 820.999634,743.068787 820.999573,817.320862 
	C820.999573,818.311157 820.999634,819.301453 820.999634,820.963806 
	C753.846558,820.963806 686.838684,820.963806 619.151245,820.658081 
	C606.794617,813.634460 595.026245,807.069763 583.459534,800.167175 
	C558.312073,785.160278 533.213867,770.069214 508.196442,754.846680 
	C484.414215,740.375854 461.990997,723.947449 440.779114,705.965759 
	C424.921265,692.522766 409.505829,678.531799 394.326721,664.321960 
	C380.726532,651.590210 367.755188,638.188354 354.439972,625.150085 
	C335.307068,606.415039 316.113831,587.741577 296.946350,569.041870 
z"/>
<path fill="#2D59D6" opacity="1.000000" stroke="none" 
	d="
M296.643555,568.900879 
	C316.113831,587.741577 335.307068,606.415039 354.439972,625.150085 
	C367.755188,638.188354 380.726532,651.590210 394.326721,664.321960 
	C409.505829,678.531799 424.921265,692.522766 440.779114,705.965759 
	C461.990997,723.947449 484.414215,740.375854 508.196442,754.846680 
	C533.213867,770.069214 558.312073,785.160278 583.459534,800.167175 
	C595.026245,807.069763 606.794617,813.634460 618.679077,820.595093 
	C617.558105,820.891846 616.229553,820.993164 614.901062,820.993225 
	C498.640900,821.000366 382.380737,820.999695 266.120575,820.999634 
	C264.640320,820.999634 263.160065,820.999634 261.029144,820.999634 
	C261.029144,725.711182 261.029144,630.681213 261.101013,535.157959 
	C272.895477,546.029785 284.618134,557.394775 296.643555,568.900879 
z"/>
<path fill="#DA822E" opacity="1.000000" stroke="none" 
	d="
M820.901245,590.609497 
	C812.782410,585.342102 804.674927,579.682556 796.700806,573.840820 
	C791.383301,569.945374 786.255981,565.790527 780.847656,561.462952 
	C793.908569,561.174133 807.165405,561.174133 820.969360,561.174133 
	C820.969360,570.975464 820.969360,580.557617 820.901245,590.609497 
z"/>
<path fill="#35383B" opacity="1.000000" stroke="none" 
	d="
M526.595154,388.096863 
	C527.581299,388.109955 528.213379,388.165314 528.845459,388.220642 
	C528.909058,388.597229 528.972656,388.973785 529.036194,389.350372 
	C525.002625,390.196899 520.969055,391.043396 516.935486,391.889923 
	C516.818054,391.415344 516.700623,390.940765 516.583252,390.466187 
	C519.802551,389.690521 523.021790,388.914825 526.595154,388.096863 
z"/>
</svg>